<svg width="24" height="16" viewBox="0 0 24 16" fill="none" xmlns="http://www.w3.org/2000/svg">
<path d="M21.9298 5.8531C23.1708 7.07317 23.1708 8.92683 21.9298 10.1469C19.8368 12.2047 16.2421 15 12.1588 15C8.07551 15 4.4808 12.2047 2.38777 10.1469C1.14679 8.92683 1.14679 7.07317 2.38777 5.8531C4.4808 3.79533 8.07551 1 12.1588 1C16.2421 1 19.8368 3.79533 21.9298 5.8531Z" stroke="#6C7275" stroke-width="1.5"/>
<path d="M15.3693 8C15.3693 9.65685 13.9319 11 12.1588 11C10.3857 11 8.94826 9.65685 8.94826 8C8.94826 6.34315 10.3857 5 12.1588 5C13.9319 5 15.3693 6.34315 15.3693 8Z" stroke="#6C7275" stroke-width="1.5"/>
</svg>
