<svg width="74" height="74" viewBox="0 0 74 74" fill="none" xmlns="http://www.w3.org/2000/svg">
<rect width="74" height="74" rx="37" fill="#2E609D"/>
<path d="M22.832 28.5L32.6255 34.049C36.236 36.0948 37.7614 36.0948 41.3719 34.049L51.1654 28.5" stroke="white" stroke-width="2.125" stroke-linejoin="round"/>
<path d="M22.8544 39.0904C22.947 43.4333 22.9933 45.6046 24.5957 47.2132C26.1981 48.8217 28.4283 48.8777 32.8887 48.9897C35.6377 49.0589 38.3597 49.0589 41.1087 48.9897C45.5691 48.8777 47.7992 48.8217 49.4018 47.2132C51.0041 45.6046 51.0505 43.4333 51.143 39.0904C51.1729 37.6939 51.1729 36.3059 51.143 34.9095C51.0505 30.5666 51.0041 28.3952 49.4018 26.7867C47.7992 25.1782 45.5691 25.1221 41.1087 25.0101C38.3597 24.941 35.6377 24.941 32.8887 25.01C28.4283 25.1221 26.1981 25.1781 24.5957 26.7867C22.9933 28.3952 22.947 30.5666 22.8544 34.9095C22.8246 36.3059 22.8246 37.6939 22.8544 39.0904Z" stroke="white" stroke-width="2.125" stroke-linejoin="round"/>
</svg>
