<svg width="64" height="64" viewBox="0 0 64 64" fill="none" xmlns="http://www.w3.org/2000/svg">
<circle cx="32" cy="32" r="31.5" fill="white" stroke="#E0DEF7"/>
<circle cx="32" cy="32" r="28" fill="#5880B1"/>
<path d="M22.666 26.6667C20.4527 26.6667 18.666 28.4534 18.666 30.6667V41.3334C18.666 43.5467 20.4527 45.3334 22.666 45.3334H24.666C26.1327 45.3334 27.3327 44.1334 27.3327 42.6667V29.3334C27.3327 27.8667 26.1327 26.6667 24.666 26.6667H22.666ZM23.9993 38.6667C23.9993 39.2134 23.546 39.6667 22.9993 39.6667C22.4527 39.6667 21.9993 39.2134 21.9993 38.6667V33.3334C21.9993 32.7867 22.4527 32.3334 22.9993 32.3334C23.546 32.3334 23.9993 32.7867 23.9993 33.3334V38.6667Z" fill="white"/>
<path d="M41.334 18.6667H33.334C31.1207 18.6667 29.334 20.4534 29.334 22.6667V41.3334C29.334 43.5467 31.1207 45.3334 33.334 45.3334H34.0007C34.374 45.3334 34.6673 45.0401 34.6673 44.6667V40.0001C34.6673 39.2667 35.2673 38.6667 36.0007 38.6667H38.6673C39.4007 38.6667 40.0007 39.2667 40.0007 40.0001V44.6667C40.0007 45.0401 40.294 45.3334 40.6673 45.3334H41.334C43.5473 45.3334 45.334 43.5467 45.334 41.3334V22.6667C45.334 20.4534 43.5473 18.6667 41.334 18.6667ZM35.6673 33.3334C35.6673 33.8801 35.214 34.3334 34.6673 34.3334C34.1207 34.3334 33.6673 33.8801 33.6673 33.3334V26.6667C33.6673 26.1201 34.1207 25.6667 34.6673 25.6667C35.214 25.6667 35.6673 26.1201 35.6673 26.6667V33.3334ZM41.0007 33.3334C41.0007 33.8801 40.5473 34.3334 40.0007 34.3334C39.454 34.3334 39.0007 33.8801 39.0007 33.3334V26.6667C39.0007 26.1201 39.454 25.6667 40.0007 25.6667C40.5473 25.6667 41.0007 26.1201 41.0007 26.6667V33.3334Z" fill="white"/>
</svg>
