<svg width="21" height="19" viewBox="0 0 21 19" fill="none" xmlns="http://www.w3.org/2000/svg">
<path d="M18.4277 6.557V0H16.4277V2H4.42773V0H2.42773V6.557C1.23773 7.25 0.427734 8.525 0.427734 10V14C0.427734 14.2652 0.533091 14.5196 0.720628 14.7071C0.908164 14.8946 1.16252 15 1.42773 15H2.42773V19H4.42773V15H16.4277V19H18.4277V15H19.4277C19.693 15 19.9473 14.8946 20.1348 14.7071C20.3224 14.5196 20.4277 14.2652 20.4277 14V10C20.4277 8.525 19.6167 7.25 18.4277 6.557ZM16.4277 4V6H11.4277V4H16.4277ZM4.42773 4H9.42773V6H4.42773V4ZM18.4277 13H2.42773V10C2.42773 8.897 3.32473 8 4.42773 8H16.4277C17.5307 8 18.4277 8.897 18.4277 10V13Z" fill="#2E609D"/>
</svg>
