<svg width="74" height="75" viewBox="0 0 74 75" fill="none" xmlns="http://www.w3.org/2000/svg">
<rect y="0.52002" width="74" height="74" rx="37" fill="#5880B1"/>
<path fill-rule="evenodd" clip-rule="evenodd" d="M31.6875 30.0825C31.6875 27.1485 34.066 24.77 37 24.77C39.934 24.77 42.3125 27.1485 42.3125 30.0825C42.3125 33.0165 39.934 35.395 37 35.395C34.066 35.395 31.6875 33.0165 31.6875 30.0825Z" fill="white"/>
<path fill-rule="evenodd" clip-rule="evenodd" d="M42.3125 34.3325C42.3125 31.9853 44.2153 30.0825 46.5625 30.0825C48.9097 30.0825 50.8125 31.9853 50.8125 34.3325C50.8125 36.6797 48.9097 38.5825 46.5625 38.5825C44.2153 38.5825 42.3125 36.6797 42.3125 34.3325Z" fill="white"/>
<path fill-rule="evenodd" clip-rule="evenodd" d="M23.1875 34.3325C23.1875 31.9853 25.0903 30.0825 27.4375 30.0825C29.7847 30.0825 31.6875 31.9853 31.6875 34.3325C31.6875 36.6797 29.7847 38.5825 27.4375 38.5825C25.0903 38.5825 23.1875 36.6797 23.1875 34.3325Z" fill="white"/>
<path fill-rule="evenodd" clip-rule="evenodd" d="M28.939 41.9365C30.6361 39.2829 33.6118 37.52 37 37.52C40.3886 37.52 43.3646 39.2834 45.0617 41.9375C46.2349 43.7724 46.7425 45.9849 46.5044 48.1421C46.4672 48.4792 46.2712 48.7783 45.9771 48.9471C43.3317 50.465 40.2655 51.3325 37 51.3325C33.7345 51.3325 30.6683 50.465 28.0229 48.9471C27.7288 48.7783 27.5328 48.4792 27.4956 48.1421C27.2575 45.9845 27.7653 43.7716 28.939 41.9365Z" fill="white"/>
<path d="M27.1999 40.7127C27.1828 40.7389 27.1659 40.7652 27.149 40.7916C25.7813 42.9301 25.1554 45.477 25.3475 47.9878C24.4861 47.8569 23.6503 47.6465 22.8481 47.364L22.6852 47.3066C22.3882 47.202 22.1806 46.9322 22.1556 46.6182L22.1419 46.4461C22.1307 46.3053 22.125 46.1632 22.125 46.02C22.125 43.1656 24.3761 40.837 27.1999 40.7127Z" fill="white"/>
<path d="M48.653 47.9877C48.8451 45.4774 48.2195 42.9311 46.8522 40.7928C46.8351 40.766 46.8179 40.7394 46.8006 40.7128C49.6241 40.8373 51.875 43.1658 51.875 46.02C51.875 46.1632 51.8693 46.3053 51.8581 46.4461L51.8444 46.6182C51.8194 46.9322 51.6118 47.202 51.3148 47.3066L51.1519 47.364C50.3498 47.6464 49.5142 47.8569 48.653 47.9877Z" fill="white"/>
</svg>
