<svg width="40" height="40" viewBox="0 0 40 40" fill="none" xmlns="http://www.w3.org/2000/svg">
<rect y="0.00146484" width="40.0016" height="40.0016" rx="20.0008" fill="#2E609D"/>
<path d="M21.3232 13.4497L22.6709 16.1675C22.8547 16.5458 23.3448 16.9087 23.7583 16.9781L26.201 17.3873C27.7632 17.6498 28.1308 18.7925 27.0051 19.9198L25.106 21.8345C24.7844 22.1587 24.6083 22.7841 24.7078 23.232L25.2515 25.6022C25.6803 27.4784 24.6925 28.2042 23.0462 27.2236L20.7565 25.857C20.3431 25.61 19.6616 25.61 19.2403 25.857L16.9508 27.2236C15.3121 28.2042 14.3166 27.4706 14.7454 25.6022L15.2891 23.232C15.3887 22.7841 15.2125 22.1587 14.8909 21.8345L12.9919 19.9198C11.8739 18.7925 12.2338 17.6498 13.7959 17.3873L16.2386 16.9781C16.6445 16.9087 17.1346 16.5458 17.3183 16.1675L18.666 13.4497C19.4012 11.9751 20.5957 11.9751 21.3232 13.4497Z" stroke="white" stroke-width="1.5" stroke-linecap="round" stroke-linejoin="round"/>
</svg>
