<svg width="21" height="20" viewBox="0 0 21 20" fill="none" xmlns="http://www.w3.org/2000/svg">
<path d="M17.9993 8.98317V6.6665C17.9993 5.2915 16.8743 4.1665 15.4993 4.1665H12.166C11.5243 4.1665 10.941 4.4165 10.4993 4.8165C10.0577 4.4165 9.47435 4.1665 8.83268 4.1665H5.49935C4.12435 4.1665 2.99935 5.2915 2.99935 6.6665V8.98317C2.49102 9.4415 2.16602 10.0998 2.16602 10.8332V15.8332H3.83268V14.1665H17.166V15.8332H18.8327V10.8332C18.8327 10.0998 18.5077 9.4415 17.9993 8.98317ZM12.166 5.83317H15.4993C15.9577 5.83317 16.3327 6.20817 16.3327 6.6665V8.33317H11.3327V6.6665C11.3327 6.20817 11.7077 5.83317 12.166 5.83317ZM4.66602 6.6665C4.66602 6.20817 5.04102 5.83317 5.49935 5.83317H8.83268C9.29102 5.83317 9.66602 6.20817 9.66602 6.6665V8.33317H4.66602V6.6665ZM3.83268 12.4998V10.8332C3.83268 10.3748 4.20768 9.99984 4.66602 9.99984H16.3327C16.791 9.99984 17.166 10.3748 17.166 10.8332V12.4998H3.83268Z" fill="#2E609D"/>
</svg>
