<svg width="25" height="24" viewBox="0 0 25 24" fill="none" xmlns="http://www.w3.org/2000/svg">
<g clip-path="url(#clip0_107_1670)">
<path d="M23.51 5.87738C23.151 5.04605 22.6333 4.29271 21.9859 3.65953C21.3381 3.02445 20.5742 2.51977 19.7359 2.17292C18.8667 1.81183 17.9344 1.627 16.9931 1.62917C15.6725 1.62917 14.3842 1.99078 13.2645 2.67381C12.9967 2.8372 12.7422 3.01667 12.5011 3.21221C12.26 3.01667 12.0056 2.8372 11.7377 2.67381C10.6181 1.99078 9.32969 1.62917 8.00915 1.62917C7.05826 1.62917 6.13683 1.81131 5.26629 2.17292C4.42522 2.52113 3.66719 3.02203 3.01629 3.65953C2.36807 4.292 1.85025 5.04552 1.49219 5.87738C1.11987 6.74256 0.929688 7.66131 0.929688 8.60685C0.929688 9.49881 1.11183 10.4283 1.47344 11.3738C1.77612 12.164 2.21004 12.9836 2.76451 13.8113C3.64308 15.1211 4.85112 16.4872 6.35112 17.872C8.83683 20.1676 11.2984 21.7533 11.4029 21.8176L12.0377 22.2247C12.319 22.4042 12.6806 22.4042 12.9618 22.2247L13.5967 21.8176C13.7011 21.7506 16.16 20.1676 18.6484 17.872C20.1484 16.4872 21.3565 15.1211 22.235 13.8113C22.7895 12.9836 23.2261 12.164 23.5261 11.3738C23.8877 10.4283 24.0699 9.49881 24.0699 8.60685C24.0725 7.66131 23.8824 6.74256 23.51 5.87738ZM12.5011 20.106C12.5011 20.106 2.9654 13.9961 2.9654 8.60685C2.9654 5.87738 5.22344 3.66488 8.00915 3.66488C9.96719 3.66488 11.6654 4.75774 12.5011 6.35417C13.3368 4.75774 15.035 3.66488 16.9931 3.66488C19.7788 3.66488 22.0368 5.87738 22.0368 8.60685C22.0368 13.9961 12.5011 20.106 12.5011 20.106Z" fill="#2E609D"/>
</g>
<defs>
<clipPath id="clip0_107_1670">
<rect width="24" height="24" fill="white" transform="translate(0.5)"/>
</clipPath>
</defs>
</svg>
