<svg width="74" height="74" viewBox="0 0 74 74" fill="none" xmlns="http://www.w3.org/2000/svg">
<rect width="74" height="74" rx="37" fill="#2E609D"/>
<path d="M39.832 51.1666V31.3333C39.832 27.3263 39.832 25.3228 38.5872 24.078C37.3424 22.8333 35.3389 22.8333 31.332 22.8333C27.3251 22.8333 25.3216 22.8333 24.0768 24.078C22.832 25.3228 22.832 27.3263 22.832 31.3333V42.6666C22.832 46.6735 22.832 48.6769 24.0768 49.9218C25.3216 51.1666 27.3251 51.1666 31.332 51.1666H39.832Z" stroke="white" stroke-width="2.125" stroke-linecap="round"/>
<path d="M29.2096 35.5834H27.793M34.8763 35.5834H33.4596M29.2096 29.9167H27.793M29.2096 41.2501H27.793M34.8763 29.9167H33.4596M34.8763 41.2501H33.4596" stroke="white" stroke-width="2.125" stroke-linecap="round"/>
<path d="M46.2096 41.2499H44.793M46.2096 35.5833H44.793" stroke="white" stroke-width="2.125" stroke-linecap="round"/>
<path d="M45.4987 31.3333H39.832V51.1666H45.4987C48.17 51.1666 49.5056 51.1666 50.3355 50.3367C51.1654 49.5068 51.1654 48.1712 51.1654 45.4999V36.9999C51.1654 34.3287 51.1654 32.993 50.3355 32.1631C49.5056 31.3333 48.17 31.3333 45.4987 31.3333Z" stroke="white" stroke-width="2.125" stroke-linecap="round"/>
</svg>
