<svg width="65" height="65" viewBox="0 0 65 65" fill="none" xmlns="http://www.w3.org/2000/svg">
<circle cx="32.5" cy="32.5" r="31.5" fill="white" stroke="#E0DEF7"/>
<circle cx="32.5" cy="32.5" r="28" fill="#5880B1"/>
<path d="M40.5 51.5C40.5 50.241 41.0928 49.0554 42.1 48.3L50.1 42.3C51.5222 41.2333 53.4778 41.2333 54.9 42.3L62.9 48.3C63.9072 49.0554 64.5 50.241 64.5 51.5V64.5H40.5V51.5Z" fill="#2E609D"/>
<path d="M51.166 55.8333C50.8927 55.8333 50.666 56.0599 50.666 56.3333V57.3333C50.666 57.6066 50.8927 57.8333 51.166 57.8333C51.4393 57.8333 51.666 57.6066 51.666 57.3333V56.3333C51.666 56.0599 51.4393 55.8333 51.166 55.8333Z" fill="white"/>
<path d="M59.1673 59.6666H58.5007V52.1532C58.5007 51.7399 58.314 51.3532 57.9873 51.0999L53.3207 47.4732C52.8407 47.0932 52.1607 47.0932 51.6807 47.4732L47.014 51.0999C46.6873 51.3532 46.5007 51.7399 46.5007 52.1466L46.4673 59.6666H45.834C45.5607 59.6666 45.334 59.8866 45.334 60.1666C45.334 60.4399 45.5607 60.6666 45.834 60.6666H59.1673C59.4407 60.6666 59.6673 60.4399 59.6673 60.1666C59.6673 59.8866 59.4407 59.6666 59.1673 59.6666ZM51.5007 49.9999H53.5007C53.774 49.9999 54.0007 50.2266 54.0007 50.4999C54.0007 50.7732 53.774 50.9999 53.5007 50.9999H51.5007C51.2273 50.9999 51.0007 50.7732 51.0007 50.4999C51.0007 50.2266 51.2273 49.9999 51.5007 49.9999ZM55.834 59.6666H49.1673V53.8332C49.1673 53.2799 49.614 52.8332 50.1673 52.8332H54.834C55.3873 52.8332 55.834 53.2799 55.834 53.8332V59.6666Z" fill="white"/>
<g clip-path="url(#clip0_7_2575)">
<g filter="url(#filter0_d_7_2575)">
<path d="M21.834 27.1666V24.4999C21.834 23.7927 22.1149 23.1144 22.615 22.6143C23.1151 22.1142 23.7934 21.8333 24.5007 21.8333H27.1673" stroke="white" stroke-width="2" stroke-linecap="round" stroke-linejoin="round" shape-rendering="crispEdges"/>
</g>
<g filter="url(#filter1_d_7_2575)">
<path d="M21.834 37.8333V40.4999C21.834 41.2072 22.1149 41.8854 22.615 42.3855C23.1151 42.8856 23.7934 43.1666 24.5007 43.1666H27.1673" stroke="white" stroke-width="2" stroke-linecap="round" stroke-linejoin="round" shape-rendering="crispEdges"/>
</g>
<path d="M37.834 21.8333H40.5007C41.2079 21.8333 41.8862 22.1142 42.3863 22.6143C42.8864 23.1144 43.1673 23.7927 43.1673 24.4999V27.1666" stroke="white" stroke-width="2" stroke-linecap="round" stroke-linejoin="round"/>
<path d="M37.834 43.1666H40.5007C41.2079 43.1666 41.8862 42.8856 42.3863 42.3855C42.8864 41.8854 43.1673 41.2072 43.1673 40.4999V37.8333" stroke="white" stroke-width="2" stroke-linecap="round" stroke-linejoin="round"/>
<path d="M32.4993 40.5L27.8327 33.8333C27.3834 33.0213 27.1538 32.1062 27.1665 31.1784C27.1792 30.2505 27.4338 29.342 27.9051 28.5426C28.3763 27.7433 29.048 27.0807 29.8538 26.6204C30.6595 26.1601 31.5714 25.918 32.4993 25.918C33.4273 25.918 34.3392 26.1601 35.1449 26.6204C35.9507 27.0807 36.6224 27.7433 37.0936 28.5426C37.5649 29.342 37.8195 30.2505 37.8322 31.1784C37.8449 32.1062 37.6153 33.0213 37.166 33.8333L32.4993 40.5Z" fill="white" stroke="white" stroke-width="2" stroke-linecap="round" stroke-linejoin="round"/>
<path d="M32.5 31.1667V31.1801" stroke="#5880B1" stroke-width="6" stroke-linecap="round" stroke-linejoin="round"/>
</g>
<defs>
<filter id="filter0_d_7_2575" x="18.834" y="18.8333" width="15.334" height="15.3333" filterUnits="userSpaceOnUse" color-interpolation-filters="sRGB">
<feFlood flood-opacity="0" result="BackgroundImageFix"/>
<feColorMatrix in="SourceAlpha" type="matrix" values="0 0 0 0 0 0 0 0 0 0 0 0 0 0 0 0 0 0 127 0" result="hardAlpha"/>
<feOffset dx="2" dy="2"/>
<feGaussianBlur stdDeviation="2"/>
<feComposite in2="hardAlpha" operator="out"/>
<feColorMatrix type="matrix" values="0 0 0 0 0.439216 0 0 0 0 0.396078 0 0 0 0 0.941176 0 0 0 0.1 0"/>
<feBlend mode="normal" in2="BackgroundImageFix" result="effect1_dropShadow_7_2575"/>
<feBlend mode="normal" in="SourceGraphic" in2="effect1_dropShadow_7_2575" result="shape"/>
</filter>
<filter id="filter1_d_7_2575" x="18.834" y="34.8333" width="15.334" height="15.3333" filterUnits="userSpaceOnUse" color-interpolation-filters="sRGB">
<feFlood flood-opacity="0" result="BackgroundImageFix"/>
<feColorMatrix in="SourceAlpha" type="matrix" values="0 0 0 0 0 0 0 0 0 0 0 0 0 0 0 0 0 0 127 0" result="hardAlpha"/>
<feOffset dx="2" dy="2"/>
<feGaussianBlur stdDeviation="2"/>
<feComposite in2="hardAlpha" operator="out"/>
<feColorMatrix type="matrix" values="0 0 0 0 0.439216 0 0 0 0 0.396078 0 0 0 0 0.941176 0 0 0 0.1 0"/>
<feBlend mode="normal" in2="BackgroundImageFix" result="effect1_dropShadow_7_2575"/>
<feBlend mode="normal" in="SourceGraphic" in2="effect1_dropShadow_7_2575" result="shape"/>
</filter>
<clipPath id="clip0_7_2575">
<rect width="32" height="32" fill="white" transform="translate(16.5 16.5)"/>
</clipPath>
</defs>
</svg>
