<svg width="74" height="75" viewBox="0 0 74 75" fill="none" xmlns="http://www.w3.org/2000/svg">
<rect y="0.52002" width="74" height="74" rx="37" fill="white"/>
<path d="M36.5721 24.4941C36.8434 24.3756 37.1517 24.3756 37.4229 24.4941C42.6913 26.796 47.6843 29.6098 52.3393 32.8727C52.6761 33.1088 52.8464 33.5182 52.7764 33.9236C52.7064 34.329 52.4087 34.6575 52.0121 34.7669C51.0418 35.0348 50.0799 35.3232 49.1267 35.6306C45.2577 36.8784 41.5333 38.4484 37.9851 40.3091L37.9804 40.3115C37.8196 40.3959 37.659 40.4809 37.4989 40.5664C37.186 40.7336 36.8103 40.7336 36.4975 40.5664C36.3358 40.4801 36.1737 40.3943 36.0113 40.3091C34.2568 39.3891 32.4593 38.5401 30.6224 37.766V37.4491C30.6224 37.263 30.7179 37.0979 30.8657 37.0084C32.998 35.7166 35.1974 34.5247 37.4575 33.4391C37.9864 33.185 38.2092 32.5503 37.9552 32.0213C37.7011 31.4924 37.0664 31.2695 36.5374 31.5236C34.2151 32.639 31.9553 33.8637 29.7646 35.1909C29.1223 35.58 28.6906 36.2169 28.5485 36.9303C27.3374 36.4645 26.1103 36.0305 24.8684 35.63C23.9152 35.3226 22.9532 35.0347 21.983 34.7669C21.5864 34.6575 21.2887 34.3289 21.2187 33.9236C21.1486 33.5182 21.3189 33.1088 21.6558 32.8727C26.3107 29.6098 31.3038 26.796 36.5721 24.4941Z" fill="#2E609D"/>
<path d="M38.5003 42.4407C41.9554 40.5946 45.5854 39.0339 49.359 37.79C49.5492 39.7943 49.6706 41.8185 49.7209 43.8603C49.7317 44.2983 49.4724 44.6981 49.0681 44.8669C45.029 46.5533 41.187 48.6182 37.5867 51.0175C37.2299 51.2553 36.7651 51.2553 36.4083 51.0175C32.8079 48.6182 28.966 46.5533 24.9269 44.8669C24.5225 44.6981 24.2632 44.2983 24.274 43.8603C24.3243 41.8184 24.4458 39.794 24.636 37.7895C25.9407 38.2196 27.2283 38.6875 28.4974 39.192V40.9918C27.8623 41.3592 27.4349 42.0459 27.4349 42.8325C27.4349 43.5342 27.775 44.1565 28.2994 44.5434C28.1726 45.0826 27.9849 45.6103 27.7364 46.1156C28.3777 46.4183 29.0135 46.7307 29.6437 47.0527C30.0026 46.3227 30.2628 45.5566 30.4243 44.7743C31.1671 44.4432 31.6849 43.6983 31.6849 42.8325C31.6849 42.0459 31.2576 41.3592 30.6224 40.9918V40.0784C32.2819 40.8034 33.9075 41.5919 35.496 42.4407C36.4347 42.9422 37.5617 42.9422 38.5003 42.4407Z" fill="#2E609D"/>
<path d="M26.3189 48.0916C26.9127 47.4978 27.3854 46.829 27.7364 46.1156C28.3777 46.4183 29.0135 46.7307 29.6437 47.0527C29.1924 47.9705 28.5848 48.8309 27.8215 49.5942C27.4066 50.0091 26.7339 50.0091 26.3189 49.5942C25.904 49.1792 25.904 48.5065 26.3189 48.0916Z" fill="#2E609D"/>
</svg>
