<svg width="18" height="16" viewBox="0 0 18 16" fill="none" xmlns="http://www.w3.org/2000/svg">
<path fill-rule="evenodd" clip-rule="evenodd" d="M2.66602 4.6661C2.66602 4.482 2.81525 4.33276 2.99935 4.33276H10.3327C10.5168 4.33276 10.666 4.482 10.666 4.6661V7.99943V11.3328C10.666 11.5169 10.5168 11.6661 10.3327 11.6661H2.99935C2.81525 11.6661 2.66602 11.5169 2.66602 11.3328V4.6661ZM12.666 6.05624V4.6661C12.666 3.37743 11.6213 2.33276 10.3327 2.33276H2.99935C1.71068 2.33276 0.666016 3.37743 0.666016 4.6661V11.3328C0.666016 12.6214 1.71068 13.6661 2.99935 13.6661H10.3327C11.6213 13.6661 12.666 12.6214 12.666 11.3328V9.94262L15.7514 12.1465C16.0563 12.3642 16.4572 12.3933 16.7903 12.2219C17.1233 12.0505 17.3327 11.7074 17.3327 11.3328V4.6661C17.3327 4.29151 17.1233 3.94833 16.7903 3.77693C16.4572 3.60552 16.0563 3.63464 15.7514 3.85236L12.666 6.05624ZM15.3327 9.38957L13.3865 7.99943L15.3327 6.60929V9.38957Z" fill="#2E609D"/>
</svg>
