<svg width="16" height="16" viewBox="0 0 16 16" fill="none" xmlns="http://www.w3.org/2000/svg">
<path d="M1.66406 8.00008C1.66406 5.01452 1.66406 3.52174 2.59156 2.59424C3.51906 1.66675 5.01184 1.66675 7.9974 1.66675C10.9829 1.66675 12.4757 1.66675 13.4033 2.59424C14.3307 3.52174 14.3307 5.01452 14.3307 8.00008C14.3307 10.9856 14.3307 12.4784 13.4033 13.4059C12.4757 14.3334 10.9829 14.3334 7.9974 14.3334C5.01184 14.3334 3.51906 14.3334 2.59156 13.4059C1.66406 12.4784 1.66406 10.9856 1.66406 8.00008Z" stroke="#2E609D"/>
<path d="M8.15885 11.3333V7.99992C8.15885 7.68565 8.15885 7.52852 8.06119 7.43085C7.96359 7.33325 7.80645 7.33325 7.49219 7.33325" stroke="#2E609D" stroke-linecap="round" stroke-linejoin="round"/>
<path d="M7.99219 5.33325H7.99819" stroke="#2E609D" stroke-width="1.33333" stroke-linecap="round" stroke-linejoin="round"/>
</svg>
