<svg width="74" height="74" viewBox="0 0 74 74" fill="none" xmlns="http://www.w3.org/2000/svg">
<rect width="74" height="74" rx="37" fill="#2E609D"/>
<path d="M27.082 32.7499C27.082 28.0752 27.082 25.7378 28.5343 24.2855C29.9866 22.8333 32.3239 22.8333 36.9987 22.8333C41.6734 22.8333 44.0108 22.8333 45.4631 24.2855C46.9154 25.7378 46.9154 28.0752 46.9154 32.7499V41.2499C46.9154 45.9246 46.9154 48.262 45.4631 49.7144C44.0108 51.1666 41.6734 51.1666 36.9987 51.1666C32.3239 51.1666 29.9866 51.1666 28.5343 49.7144C27.082 48.262 27.082 45.9246 27.082 41.2499V32.7499Z" stroke="white" stroke-width="2.125" stroke-linecap="round"/>
<path d="M35.582 46.9167H38.4154" stroke="white" stroke-width="2.125" stroke-linecap="round" stroke-linejoin="round"/>
<path d="M32.75 22.8333L32.8761 23.5898C33.1493 25.2292 33.286 26.049 33.8482 26.5478C34.4347 27.0681 35.2661 27.0833 37 27.0833C38.7339 27.0833 39.5653 27.0681 40.1518 26.5478C40.7141 26.049 40.8506 25.2292 41.1239 23.5898L41.25 22.8333" stroke="white" stroke-width="2.125" stroke-linejoin="round"/>
</svg>
