<svg width="17" height="16" viewBox="0 0 17 16" fill="none" xmlns="http://www.w3.org/2000/svg">
<path fill-rule="evenodd" clip-rule="evenodd" d="M4.49961 1.6001C4.71178 1.6001 4.91527 1.68438 5.06529 1.83441C5.21532 1.98444 5.29961 2.18792 5.29961 2.4001V3.2001H6.09961C6.31178 3.2001 6.51527 3.28438 6.66529 3.43441C6.81532 3.58444 6.89961 3.78792 6.89961 4.0001C6.89961 4.21227 6.81532 4.41575 6.66529 4.56578C6.51527 4.71581 6.31178 4.8001 6.09961 4.8001H5.29961V5.6001C5.29961 5.81227 5.21532 6.01575 5.06529 6.16578C4.91527 6.31581 4.71178 6.4001 4.49961 6.4001C4.28744 6.4001 4.08395 6.31581 3.93392 6.16578C3.7839 6.01575 3.69961 5.81227 3.69961 5.6001V4.8001H2.89961C2.68744 4.8001 2.48395 4.71581 2.33392 4.56578C2.18389 4.41575 2.09961 4.21227 2.09961 4.0001C2.09961 3.78792 2.18389 3.58444 2.33392 3.43441C2.48395 3.28438 2.68744 3.2001 2.89961 3.2001H3.69961V2.4001C3.69961 2.18792 3.7839 1.98444 3.93392 1.83441C4.08395 1.68438 4.28744 1.6001 4.49961 1.6001ZM4.49961 9.6001C4.71178 9.6001 4.91527 9.68438 5.06529 9.83441C5.21532 9.98444 5.29961 10.1879 5.29961 10.4001V11.2001H6.09961C6.31178 11.2001 6.51527 11.2844 6.66529 11.4344C6.81532 11.5844 6.89961 11.7879 6.89961 12.0001C6.89961 12.2123 6.81532 12.4158 6.66529 12.5658C6.51527 12.7158 6.31178 12.8001 6.09961 12.8001H5.29961V13.6001C5.29961 13.8123 5.21532 14.0158 5.06529 14.1658C4.91527 14.3158 4.71178 14.4001 4.49961 14.4001C4.28744 14.4001 4.08395 14.3158 3.93392 14.1658C3.7839 14.0158 3.69961 13.8123 3.69961 13.6001V12.8001H2.89961C2.68744 12.8001 2.48395 12.7158 2.33392 12.5658C2.18389 12.4158 2.09961 12.2123 2.09961 12.0001C2.09961 11.7879 2.18389 11.5844 2.33392 11.4344C2.48395 11.2844 2.68744 11.2001 2.89961 11.2001H3.69961V10.4001C3.69961 10.1879 3.7839 9.98444 3.93392 9.83441C4.08395 9.68438 4.28744 9.6001 4.49961 9.6001ZM10.0996 1.6001C10.2762 1.60004 10.4478 1.65839 10.5877 1.76605C10.7276 1.87371 10.828 2.02463 10.8732 2.1953L11.8164 5.7601L14.4996 7.3073C14.6212 7.37751 14.7222 7.4785 14.7924 7.60011C14.8626 7.72173 14.8996 7.85967 14.8996 8.0001C14.8996 8.14052 14.8626 8.27847 14.7924 8.40008C14.7222 8.52169 14.6212 8.62268 14.4996 8.6929L11.8164 10.2409L10.8724 13.8049C10.8271 13.9754 10.7268 14.1262 10.5869 14.2337C10.4471 14.3413 10.2756 14.3996 10.0992 14.3996C9.9228 14.3996 9.75133 14.3413 9.61149 14.2337C9.47166 14.1262 9.37129 13.9754 9.32601 13.8049L8.38281 10.2401L5.69961 8.6929C5.578 8.62268 5.47702 8.52169 5.40681 8.40008C5.33661 8.27847 5.29964 8.14052 5.29964 8.0001C5.29964 7.85967 5.33661 7.72173 5.40681 7.60011C5.47702 7.4785 5.578 7.37751 5.69961 7.3073L8.38281 5.7593L9.32681 2.1953C9.37197 2.02476 9.47224 1.87394 9.612 1.76629C9.75177 1.65865 9.9232 1.60022 10.0996 1.6001Z" fill="white"/>
</svg>
