<svg width="10" height="11" viewBox="0 0 10 11" fill="none" xmlns="http://www.w3.org/2000/svg">
<path d="M9.89258 3.91975C9.95151 3.91975 9.99972 3.87153 9.99972 3.8126V3.00903C9.99972 2.9501 9.95151 2.90189 9.89258 2.90189H7.69615V0.678676C7.69615 0.619747 7.64794 0.571533 7.58901 0.571533H6.73186C6.67294 0.571533 6.62472 0.619747 6.62472 0.678676V2.90189H3.57115V0.678676C3.57115 0.619747 3.52294 0.571533 3.46401 0.571533H2.60686C2.54794 0.571533 2.49972 0.619747 2.49972 0.678676V2.90189H0.249721C0.190792 2.90189 0.142578 2.9501 0.142578 3.00903V3.8126C0.142578 3.87153 0.190792 3.91975 0.249721 3.91975H2.49972V7.08046H0.249721C0.190792 7.08046 0.142578 7.12868 0.142578 7.18761V7.99118C0.142578 8.05011 0.190792 8.09832 0.249721 8.09832H2.49972V10.3215C2.49972 10.3805 2.54794 10.4287 2.60686 10.4287H3.46401C3.52294 10.4287 3.57115 10.3805 3.57115 10.3215V8.09832H6.62472V10.3215C6.62472 10.3805 6.67294 10.4287 6.73186 10.4287H7.58901C7.64794 10.4287 7.69615 10.3805 7.69615 10.3215V8.09832H9.89258C9.95151 8.09832 9.99972 8.05011 9.99972 7.99118V7.18761C9.99972 7.12868 9.95151 7.08046 9.89258 7.08046H7.69615V3.91975H9.89258ZM6.62472 7.08046H3.57115V3.91975H6.62472V7.08046Z" fill="black" fill-opacity="0.85"/>
</svg>
