<svg width="16" height="16" viewBox="0 0 16 16" fill="none" xmlns="http://www.w3.org/2000/svg">
<path d="M15.4286 1.71094H0.571429C0.255357 1.71094 0 1.96629 0 2.28237V13.7109C0 14.027 0.255357 14.2824 0.571429 14.2824H15.4286C15.7446 14.2824 16 14.027 16 13.7109V2.28237C16 1.96629 15.7446 1.71094 15.4286 1.71094ZM14.7143 12.9967H1.28571V12.2842L3.75893 9.35022L6.43929 12.5288L10.6089 7.58594L14.7143 12.4538V12.9967ZM14.7143 10.6788L10.7179 5.93951C10.6607 5.87165 10.5571 5.87165 10.5 5.93951L6.43929 10.7538L3.86786 7.70558C3.81071 7.63772 3.70714 7.63772 3.65 7.70558L1.28571 10.5092V2.99665H14.7143V10.6788ZM4.28571 6.99665C4.49208 6.99665 4.69642 6.95601 4.88707 6.87703C5.07773 6.79806 5.25096 6.68231 5.39688 6.53639C5.5428 6.39047 5.65855 6.21724 5.73752 6.02658C5.8165 5.83593 5.85714 5.63159 5.85714 5.42522C5.85714 5.21886 5.8165 5.01452 5.73752 4.82386C5.65855 4.63321 5.5428 4.45998 5.39688 4.31406C5.25096 4.16813 5.07773 4.05238 4.88707 3.97341C4.69642 3.89444 4.49208 3.8538 4.28571 3.8538C3.86895 3.8538 3.46925 4.01936 3.17455 4.31406C2.87985 4.60876 2.71429 5.00846 2.71429 5.42522C2.71429 5.84199 2.87985 6.24169 3.17455 6.53639C3.46925 6.83109 3.86895 6.99665 4.28571 6.99665ZM4.28571 4.92522C4.5625 4.92522 4.78571 5.14844 4.78571 5.42522C4.78571 5.70201 4.5625 5.92522 4.28571 5.92522C4.00893 5.92522 3.78571 5.70201 3.78571 5.42522C3.78571 5.14844 4.00893 4.92522 4.28571 4.92522Z" fill="#E6FFFB"/>
</svg>
