<svg width="64" height="65" viewBox="0 0 64 65" fill="none" xmlns="http://www.w3.org/2000/svg">
<circle cx="32" cy="32.5" r="31.5" fill="white" stroke="#E0DEF7"/>
<circle cx="32" cy="32.5" r="28" fill="#5880B1"/>
<g clip-path="url(#clip0_7_2537)">
<path fill-rule="evenodd" clip-rule="evenodd" d="M18.666 32.5001H21.6289V42.8705C21.6289 43.6563 21.9411 44.4099 22.4967 44.9656C23.0524 45.5212 23.806 45.8334 24.5919 45.8334H39.4067C40.1925 45.8334 40.9462 45.5212 41.5018 44.9656C42.0575 44.4099 42.3696 43.6563 42.3696 42.8705V32.5001H42.3697H45.3327L31.9993 19.1667L18.666 32.5001Z" fill="white"/>
<path d="M21.6289 32.5001H22.6289C22.6289 31.9478 22.1812 31.5001 21.6289 31.5001V32.5001ZM18.666 32.5001L17.9589 31.793C17.6729 32.079 17.5874 32.5091 17.7421 32.8828C17.8969 33.2564 18.2616 33.5001 18.666 33.5001V32.5001ZM22.4967 44.9656L23.2038 44.2585L22.4967 44.9656ZM41.5018 44.9656L40.7947 44.2585L40.7947 44.2585L41.5018 44.9656ZM42.3696 32.5001V31.5001C41.8174 31.5001 41.3696 31.9478 41.3696 32.5001H42.3696ZM45.3327 32.5001V33.5001C45.7371 33.5001 46.1018 33.2564 46.2566 32.8828C46.4113 32.5091 46.3258 32.079 46.0398 31.793L45.3327 32.5001ZM31.9993 19.1667L32.7065 18.4596C32.3159 18.0691 31.6828 18.0691 31.2922 18.4596L31.9993 19.1667ZM21.6289 31.5001H18.666V33.5001H21.6289V31.5001ZM20.6289 32.5001V42.8705H22.6289V32.5001H20.6289ZM20.6289 42.8705C20.6289 43.9215 21.0464 44.9295 21.7896 45.6727L23.2038 44.2585C22.8357 43.8903 22.6289 43.3911 22.6289 42.8705H20.6289ZM21.7896 45.6727C22.5328 46.4159 23.5408 46.8334 24.5919 46.8334V44.8334C24.0713 44.8334 23.572 44.6266 23.2038 44.2585L21.7896 45.6727ZM24.5919 46.8334H39.4067V44.8334H24.5919V46.8334ZM39.4067 46.8334C40.4577 46.8334 41.4657 46.4159 42.2089 45.6727L40.7947 44.2585C40.4266 44.6266 39.9273 44.8334 39.4067 44.8334V46.8334ZM42.2089 45.6727C42.9521 44.9295 43.3696 43.9215 43.3696 42.8705H41.3696C41.3696 43.3911 41.1628 43.8903 40.7947 44.2585L42.2089 45.6727ZM43.3696 42.8705V32.5001H41.3696V42.8705H43.3696ZM42.3697 31.5001H42.3696V33.5001H42.3697V31.5001ZM45.3327 31.5001H42.3697V33.5001H45.3327V31.5001ZM31.2922 19.8739L44.6256 33.2072L46.0398 31.793L32.7065 18.4596L31.2922 19.8739ZM19.3731 33.2072L32.7065 19.8739L31.2922 18.4596L17.9589 31.793L19.3731 33.2072Z" fill="white"/>
<path d="M28 34.5002L30.6667 37.1668L36 31.8335" stroke="#5880B1" stroke-width="2" stroke-linecap="round" stroke-linejoin="round"/>
</g>
<path d="M40 40.5H64V52.5C64 59.1274 58.6274 64.5 52 64.5C45.3726 64.5 40 59.1274 40 52.5V40.5Z" fill="#2E609D"/>
<path d="M56.3605 47.2801L52.6939 45.9068C52.3139 45.7668 51.6939 45.7668 51.3139 45.9068L47.6472 47.2801C46.9405 47.5468 46.3672 48.3734 46.3672 49.1268V54.5268C46.3672 55.0668 46.7205 55.7801 47.1539 56.1001L50.8205 58.8401C51.4672 59.3268 52.5272 59.3268 53.1739 58.8401L56.8405 56.1001C57.2739 55.7734 57.6272 55.0668 57.6272 54.5268V49.1268C57.6339 48.3734 57.0605 47.5468 56.3605 47.2801ZM52.5005 53.0801V54.8334C52.5005 55.1068 52.2739 55.3334 52.0005 55.3334C51.7272 55.3334 51.5005 55.1068 51.5005 54.8334V53.0801C50.8272 52.8668 50.3339 52.2401 50.3339 51.5001C50.3339 50.5801 51.0805 49.8334 52.0005 49.8334C52.9205 49.8334 53.6672 50.5801 53.6672 51.5001C53.6672 52.2468 53.1739 52.8668 52.5005 53.0801Z" fill="white"/>
<defs>
<clipPath id="clip0_7_2537">
<rect width="32" height="32" fill="white" transform="translate(16 16.5)"/>
</clipPath>
</defs>
</svg>
