<svg width="25" height="18" viewBox="0 0 25 18" fill="none" xmlns="http://www.w3.org/2000/svg">
<path d="M21.5703 5V3C21.5703 1.35 20.2203 0 18.5703 0H14.5703C13.8003 0 13.1003 0.3 12.5703 0.78C12.0403 0.3 11.3403 0 10.5703 0H6.57031C4.92031 0 3.57031 1.35 3.57031 3V5C1.92031 5 0.570312 6.35 0.570312 8V13C0.570312 14.65 1.92031 16 3.57031 16V18H5.57031V16H19.5703V18H21.5703V16C23.2203 16 24.5703 14.65 24.5703 13V8C24.5703 6.35 23.2203 5 21.5703 5ZM14.5703 2H18.5703C19.1203 2 19.5703 2.45 19.5703 3V5.78C18.9603 6.33 18.5703 7.12 18.5703 8V10H13.5703V3C13.5703 2.45 14.0203 2 14.5703 2ZM5.57031 3C5.57031 2.45 6.02031 2 6.57031 2H10.5703C11.1203 2 11.5703 2.45 11.5703 3V10H6.57031V8C6.57031 7.12 6.18031 6.33 5.57031 5.78V3ZM22.5703 13C22.5703 13.55 22.1203 14 21.5703 14H3.57031C3.02031 14 2.57031 13.55 2.57031 13V8C2.57031 7.45 3.02031 7 3.57031 7C4.12031 7 4.57031 7.45 4.57031 8V12H20.5703V8C20.5703 7.45 21.0203 7 21.5703 7C22.1203 7 22.5703 7.45 22.5703 8V13Z" fill="#2E609D"/>
</svg>
