<svg width="16" height="16" viewBox="0 0 16 16" fill="none" xmlns="http://www.w3.org/2000/svg">
<path fill-rule="evenodd" clip-rule="evenodd" d="M5.33145 0.832765C5.23849 0.83299 5.15149 0.858584 5.077 0.90299L0.417946 3.56531C0.262159 3.65433 0.166016 3.82 0.166016 3.99943V14.6661C0.166016 14.8443 0.260895 15.0091 0.415052 15.0986C0.56921 15.188 0.759334 15.1886 0.914085 15.1002L5.34842 12.5663L10.4334 15.1088C10.4983 15.143 10.5716 15.1633 10.6495 15.1658C10.655 15.166 10.6605 15.1661 10.666 15.1661C10.7595 15.1661 10.8469 15.1405 10.9217 15.0958L15.5808 12.4336C15.7365 12.3445 15.8327 12.1789 15.8327 11.9994V1.33276C15.8327 1.15453 15.7378 0.98977 15.5836 0.900309C15.4295 0.810848 15.2394 0.810213 15.0846 0.898642L10.6503 3.43255L5.5653 0.890056C5.49671 0.85394 5.4187 0.833299 5.33592 0.832774L5.33268 0.832764L5.33145 0.832765ZM11.166 13.8045L14.8327 11.7093V2.19435L11.166 4.28959V13.8045ZM10.166 4.30845L5.83268 2.14178V11.6904L10.166 13.8571V4.30845ZM1.16602 4.28959L4.83268 2.19435V11.7093L1.16602 13.8045V4.28959Z" fill="#2E609D"/>
</svg>
