<svg width="25" height="22" viewBox="0 0 25 22" fill="none" xmlns="http://www.w3.org/2000/svg">
<path d="M23.51 4.87738C23.151 4.04605 22.6333 3.29271 21.9859 2.65953C21.3381 2.02445 20.5742 1.51977 19.7359 1.17292C18.8667 0.811829 17.9344 0.627003 16.9931 0.629169C15.6725 0.629169 14.3842 0.990776 13.2645 1.67381C12.9967 1.8372 12.7422 2.01667 12.5011 2.21221C12.26 2.01667 12.0056 1.8372 11.7377 1.67381C10.6181 0.990776 9.32969 0.629169 8.00915 0.629169C7.05826 0.629169 6.13683 0.811312 5.26629 1.17292C4.42522 1.52113 3.66719 2.02203 3.01629 2.65953C2.36807 3.292 1.85025 4.04552 1.49219 4.87738C1.11987 5.74256 0.929688 6.66131 0.929688 7.60685C0.929688 8.49881 1.11183 9.42828 1.47344 10.3738C1.77612 11.164 2.21004 11.9836 2.76451 12.8113C3.64308 14.1211 4.85112 15.4872 6.35112 16.872C8.83683 19.1676 11.2984 20.7533 11.4029 20.8176L12.0377 21.2247C12.319 21.4042 12.6806 21.4042 12.9618 21.2247L13.5967 20.8176C13.7011 20.7506 16.16 19.1676 18.6484 16.872C20.1484 15.4872 21.3565 14.1211 22.235 12.8113C22.7895 11.9836 23.2261 11.164 23.5261 10.3738C23.8877 9.42828 24.0699 8.49881 24.0699 7.60685C24.0725 6.66131 23.8824 5.74256 23.51 4.87738ZM12.5011 19.106C12.5011 19.106 2.9654 12.9961 2.9654 7.60685C2.9654 4.87738 5.22344 2.66488 8.00915 2.66488C9.96719 2.66488 11.6654 3.75774 12.5011 5.35417C13.3368 3.75774 15.035 2.66488 16.9931 2.66488C19.7788 2.66488 22.0368 4.87738 22.0368 7.60685C22.0368 12.9961 12.5011 19.106 12.5011 19.106Z" fill="white"/>
</svg>
