<svg width="64" height="64" viewBox="0 0 64 64" fill="none" xmlns="http://www.w3.org/2000/svg">
<circle cx="32" cy="32" r="31.5" fill="white" stroke="#E0DEF7"/>
<circle cx="32" cy="32" r="28" fill="#2E609D" fill-opacity="0.8"/>
<path d="M39.3734 26.3601C39.2801 26.3467 39.1867 26.3467 39.0934 26.3601C37.0267 26.2934 35.3867 24.6001 35.3867 22.5201C35.3867 20.4001 37.1067 18.6667 39.2401 18.6667C41.3601 18.6667 43.0934 20.3867 43.0934 22.5201C43.0801 24.6001 41.4401 26.2934 39.3734 26.3601Z" fill="white"/>
<path d="M43.7195 35.6C42.2261 36.6 40.1328 36.9734 38.1995 36.72C38.7061 35.6267 38.9728 34.4134 38.9861 33.1334C38.9861 31.8001 38.6928 30.5334 38.1328 29.4267C40.1061 29.16 42.1995 29.5334 43.7061 30.5334C45.8128 31.92 45.8128 34.2 43.7195 35.6Z" fill="white"/>
<path d="M24.5875 26.3601C24.6809 26.3467 24.7742 26.3467 24.8675 26.3601C26.9342 26.2934 28.5742 24.6001 28.5742 22.5201C28.5742 20.3867 26.8542 18.6667 24.7209 18.6667C22.6009 18.6667 20.8809 20.3867 20.8809 22.5201C20.8809 24.6001 22.5209 26.2934 24.5875 26.3601Z" fill="white"/>
<path d="M24.7335 33.1334C24.7335 34.4267 25.0135 35.6534 25.5202 36.7601C23.6402 36.9601 21.6802 36.5601 20.2402 35.6134C18.1335 34.2134 18.1335 31.9334 20.2402 30.5334C21.6668 29.5734 23.6802 29.1867 25.5735 29.4001C25.0268 30.5201 24.7335 31.7867 24.7335 33.1334Z" fill="white"/>
<path d="M32.1604 37.16C32.0537 37.1467 31.9337 37.1467 31.8137 37.16C29.3604 37.08 27.4004 35.0667 27.4004 32.5867C27.4137 30.0533 29.4537 28 32.0004 28C34.5337 28 36.5871 30.0533 36.5871 32.5867C36.5737 35.0667 34.6271 37.08 32.1604 37.16Z" fill="white"/>
<path d="M27.8264 39.92C25.8131 41.2667 25.8131 43.48 27.8264 44.8134C30.1197 46.3467 33.8797 46.3467 36.1731 44.8134C38.1864 43.4667 38.1864 41.2534 36.1731 39.92C33.8931 38.3867 30.1331 38.3867 27.8264 39.92Z" fill="white"/>
</svg>
