<svg width="25" height="24" viewBox="0 0 25 24" fill="none" xmlns="http://www.w3.org/2000/svg">
<path d="M19.7146 2H9.71463C8.61163 2 7.71463 2.897 7.71463 4V9.586L3.00763 14.293C2.86782 14.4329 2.77261 14.611 2.73405 14.805C2.69548 14.9989 2.71528 15.2 2.79095 15.3827C2.86662 15.5654 2.99476 15.7215 3.15917 15.8314C3.32358 15.9413 3.51688 16 3.71463 16V21C3.71463 21.2652 3.81999 21.5196 4.00752 21.7071C4.19506 21.8946 4.44941 22 4.71463 22H20.7146C20.9798 22 21.2342 21.8946 21.4217 21.7071C21.6093 21.5196 21.7146 21.2652 21.7146 21V4C21.7146 2.897 20.8176 2 19.7146 2ZM11.7146 20H5.71463V14.414L8.71463 11.414L11.7146 14.414V20ZM19.7146 20H13.7146V16C13.9126 16.0004 14.1062 15.942 14.2709 15.8322C14.4357 15.7224 14.5641 15.5662 14.6398 15.3833C14.7156 15.2004 14.7353 14.9991 14.6964 14.805C14.6576 14.6109 14.5619 14.4327 14.4216 14.293L9.71463 9.586V4H19.7146V20Z" fill="#2E609D"/>
<path d="M11.7148 6H13.7148V8H11.7148V6ZM15.7148 6H17.7148V8H15.7148V6ZM15.7148 10.031H17.7148V12H15.7148V10.031ZM15.7148 14H17.7148V16H15.7148V14ZM7.71484 15H9.71484V17H7.71484V15Z" fill="#2E609D"/>
</svg>
