<svg width="15" height="18" viewBox="0 0 15 18" fill="none" xmlns="http://www.w3.org/2000/svg">
<path d="M4.85742 14C4.85742 14.55 4.40742 15 3.85742 15C3.30742 15 2.85742 14.55 2.85742 14C2.85742 13.45 3.30742 13 3.85742 13C4.40742 13 4.85742 13.45 4.85742 14ZM7.85742 13C7.30742 13 6.85742 13.45 6.85742 14C6.85742 14.55 7.30742 15 7.85742 15C8.40742 15 8.85742 14.55 8.85742 14C8.85742 13.45 8.40742 13 7.85742 13ZM11.8574 13C11.3074 13 10.8574 13.45 10.8574 14C10.8574 14.55 11.3074 15 11.8574 15C12.4074 15 12.8574 14.55 12.8574 14C12.8574 13.45 12.4074 13 11.8574 13ZM14.8574 9V11H0.857422V9C0.857422 5.47 3.46742 2.57 6.85742 2.08V0H8.85742V2.08C12.2474 2.57 14.8574 5.47 14.8574 9ZM12.8574 9C12.8574 6.24 10.6174 4 7.85742 4C5.09742 4 2.85742 6.24 2.85742 9H12.8574ZM3.85742 16C3.30742 16 2.85742 16.45 2.85742 17C2.85742 17.55 3.30742 18 3.85742 18C4.40742 18 4.85742 17.55 4.85742 17C4.85742 16.45 4.40742 16 3.85742 16ZM7.85742 16C7.30742 16 6.85742 16.45 6.85742 17C6.85742 17.55 7.30742 18 7.85742 18C8.40742 18 8.85742 17.55 8.85742 17C8.85742 16.45 8.40742 16 7.85742 16ZM11.8574 16C11.3074 16 10.8574 16.45 10.8574 17C10.8574 17.55 11.3074 18 11.8574 18C12.4074 18 12.8574 17.55 12.8574 17C12.8574 16.45 12.4074 16 11.8574 16Z" fill="#2E609D"/>
</svg>
