<svg width="25" height="24" viewBox="0 0 25 24" fill="none" xmlns="http://www.w3.org/2000/svg">
<path d="M4.64258 12C6.02329 12 7.14258 10.8807 7.14258 9.5C7.14258 8.11929 6.02329 7 4.64258 7C3.26187 7 2.14258 8.11929 2.14258 9.5C2.14258 10.8807 3.26187 12 4.64258 12Z" fill="#2E609D"/>
<path d="M9.14258 8C10.5233 8 11.6426 6.88071 11.6426 5.5C11.6426 4.11929 10.5233 3 9.14258 3C7.76187 3 6.64258 4.11929 6.64258 5.5C6.64258 6.88071 7.76187 8 9.14258 8Z" fill="#2E609D"/>
<path d="M15.1426 8C16.5233 8 17.6426 6.88071 17.6426 5.5C17.6426 4.11929 16.5233 3 15.1426 3C13.7619 3 12.6426 4.11929 12.6426 5.5C12.6426 6.88071 13.7619 8 15.1426 8Z" fill="#2E609D"/>
<path d="M19.6426 12C21.0233 12 22.1426 10.8807 22.1426 9.5C22.1426 8.11929 21.0233 7 19.6426 7C18.2619 7 17.1426 8.11929 17.1426 9.5C17.1426 10.8807 18.2619 12 19.6426 12Z" fill="#2E609D"/>
<path d="M17.4832 14.86C16.6132 13.84 15.8832 12.97 15.0032 11.95C14.5432 11.41 13.9532 10.87 13.2532 10.63C13.1432 10.59 13.0332 10.56 12.9232 10.54C12.6732 10.5 12.4032 10.5 12.1432 10.5C11.8832 10.5 11.6132 10.5 11.3532 10.55C11.2432 10.57 11.1332 10.6 11.0232 10.64C10.3232 10.88 9.74321 11.42 9.27321 11.96C8.40321 12.98 7.67321 13.85 6.79321 14.87C5.48321 16.18 3.87321 17.63 4.17321 19.66C4.46321 20.68 5.19321 21.69 6.50321 21.98C7.23321 22.13 9.56321 21.54 12.0432 21.54H12.2232C14.7032 21.54 17.0332 22.12 17.7632 21.98C19.0732 21.69 19.8032 20.67 20.0932 19.66C20.4032 17.62 18.7932 16.17 17.4832 14.86Z" fill="#2E609D"/>
</svg>
