<svg width="40" height="40" viewBox="0 0 40 40" fill="none" xmlns="http://www.w3.org/2000/svg">
<rect width="40.0016" height="40.0016" rx="20.0008" fill="#2E609D"/>
<path d="M22.2981 23.8301C21.6858 24.3067 20.8815 24.5959 20.0006 24.5959C19.1197 24.5959 18.3154 24.3067 17.7031 23.8301" stroke="white" stroke-width="1.5" stroke-linecap="round"/>
<path d="M12.6109 20.9302C12.3405 19.1709 12.2054 18.2912 12.538 17.5114C12.8706 16.7316 13.6085 16.1981 15.0844 15.131L16.187 14.3337C18.023 13.0063 18.941 12.3425 20.0001 12.3425C21.0593 12.3425 21.9773 13.0063 23.8132 14.3337L24.9159 15.131C26.3918 16.1981 27.1297 16.7316 27.4623 17.5114C27.7949 18.2912 27.6597 19.1709 27.3893 20.9302L27.1588 22.4304C26.7756 24.9243 26.5839 26.1713 25.6895 26.9153C24.7951 27.6592 23.4875 27.6592 20.8722 27.6592H19.128C16.5128 27.6592 15.2052 27.6592 14.3108 26.9153C13.4163 26.1713 13.2247 24.9243 12.8414 22.4304L12.6109 20.9302Z" stroke="white" stroke-width="1.5" stroke-linejoin="round"/>
</svg>
