<svg width="22" height="18" viewBox="0 0 22 18" fill="none" xmlns="http://www.w3.org/2000/svg">
<path d="M8.19111 13.5001H14.3786C14.4817 13.5001 14.5661 13.4157 14.5661 13.3126V11.3438C14.5661 11.2407 14.4817 11.1563 14.3786 11.1563H13.4411C13.338 11.1563 13.2536 11.2407 13.2536 11.3438V12.1876H9.3161V11.3438C9.3161 11.2407 9.23173 11.1563 9.1286 11.1563H8.19111C8.08798 11.1563 8.00361 11.2407 8.00361 11.3438V13.3126C8.00361 13.4157 8.08798 13.5001 8.19111 13.5001ZM16.1599 10.6173C16.1599 10.8659 16.2586 11.1044 16.4344 11.2802C16.6103 11.456 16.8487 11.5548 17.0974 11.5548C17.346 11.5548 17.5845 11.456 17.7603 11.2802C17.9361 11.1044 18.0349 10.8659 18.0349 10.6173C18.0349 10.3686 17.9361 10.1302 17.7603 9.95437C17.5845 9.77856 17.346 9.67979 17.0974 9.67979C16.8487 9.67979 16.6103 9.77856 16.4344 9.95437C16.2586 10.1302 16.1599 10.3686 16.1599 10.6173ZM21.7614 6.68916L21.2059 5.71885C21.181 5.67607 21.1401 5.64492 21.0922 5.63218C21.0444 5.61945 20.9934 5.62617 20.9505 5.65088L19.7622 6.34463L17.927 1.27744C17.8302 0.975084 17.6397 0.711342 17.3831 0.524296C17.1266 0.33725 16.8172 0.236578 16.4997 0.236817H6.34423C5.53095 0.236817 4.80907 0.761817 4.55829 1.5376L2.80985 6.34697L1.61923 5.65322C1.5763 5.62851 1.52534 5.62179 1.47748 5.63453C1.42961 5.64726 1.38873 5.67842 1.36376 5.72119L0.808293 6.68916C0.75673 6.77822 0.787199 6.89072 0.876261 6.94229L2.29189 7.76729L1.95204 8.70479C1.92392 8.77979 1.90986 8.85947 1.90986 8.93916V17.1001C1.90986 17.4681 2.18642 17.7657 2.52626 17.7657H4.11064C4.39892 17.7657 4.6497 17.5478 4.71064 17.2431L4.8911 16.3595H17.6786L17.8591 17.2431C17.9224 17.5478 18.1708 17.7657 18.4591 17.7657H20.0434C20.3833 17.7657 20.6599 17.4681 20.6599 17.1001V8.93916C20.6599 8.85947 20.6458 8.77979 20.6177 8.70479L20.2778 7.76729L21.6911 6.94229C21.7337 6.91772 21.7649 6.87743 21.778 6.8301C21.7912 6.78276 21.7852 6.73215 21.7614 6.68916ZM18.9724 9.11729V14.672H3.59736V9.11729L3.96298 8.10947H18.6067L18.9724 9.11729ZM6.14501 2.11182L6.15673 2.08135L6.16611 2.05088C6.19189 1.97354 6.2622 1.92197 6.34423 1.92197H16.3661L18.1333 6.79697H4.4411L6.14501 2.11182ZM4.53485 10.6173C4.53485 10.8659 4.63363 11.1044 4.80944 11.2802C4.98526 11.456 5.22371 11.5548 5.47235 11.5548C5.721 11.5548 5.95945 11.456 6.13527 11.2802C6.31108 11.1044 6.40985 10.8659 6.40985 10.6173C6.40985 10.3686 6.31108 10.1302 6.13527 9.95437C5.95945 9.77856 5.721 9.67979 5.47235 9.67979C5.22371 9.67979 4.98526 9.77856 4.80944 9.95437C4.63363 10.1302 4.53485 10.3686 4.53485 10.6173Z" fill="#2E609D"/>
</svg>
