<svg width="40" height="40" viewBox="0 0 40 40" fill="none" xmlns="http://www.w3.org/2000/svg">
<rect y="0.00317383" width="40.0016" height="40.0016" rx="20.0008" fill="#2E609D"/>
<path d="M24.2132 14.6431C24.8476 14.6431 25.362 15.1574 25.362 15.7918C25.362 16.4263 24.8476 16.9406 24.2132 16.9406C23.5788 16.9406 23.0645 16.4263 23.0645 15.7918C23.0645 15.1574 23.5788 14.6431 24.2132 14.6431Z" stroke="white" stroke-width="1.5" stroke-linecap="round" stroke-linejoin="round"/>
<path d="M12.9347 19.3484C12.1665 20.2064 12.15 21.5009 12.855 22.4116C14.2542 24.2186 15.7856 25.75 17.5926 27.1491C18.5032 27.8542 19.7977 27.8377 20.6558 27.0695C22.9853 24.9836 25.1186 22.8038 27.1774 20.4083C27.381 20.1715 27.5083 19.8813 27.5369 19.5703C27.6632 18.1951 27.9228 14.2332 26.8469 13.1573C25.7709 12.0813 21.809 12.3409 20.4339 12.4673C20.1229 12.4959 19.8326 12.6232 19.5958 12.8267C17.2003 14.8856 15.0205 17.0189 12.9347 19.3484Z" stroke="white" stroke-width="1.5"/>
<path d="M21.3703 20.2847C21.3866 19.9776 21.4728 19.4159 21.0059 18.9889M21.0059 18.9889C20.8614 18.8568 20.6639 18.7375 20.395 18.6428C19.4327 18.3036 18.2507 19.4388 19.0868 20.4779C19.5363 21.0365 19.8829 21.2083 19.8502 21.8427C19.8273 22.2888 19.389 22.7551 18.8113 22.9326C18.3094 23.0869 17.7559 22.8827 17.4057 22.4914C16.9782 22.0137 17.0214 21.5634 17.0177 21.3671M21.0059 18.9889L21.5328 18.4619M17.4438 22.5509L16.9434 23.0514" stroke="white" stroke-width="1.5" stroke-linecap="round" stroke-linejoin="round"/>
</svg>
